<svg id="clothes" xmlns="http://www.w3.org/2000/svg" xmlns:xlink="http://www.w3.org/1999/xlink" width="139.71" height="107.787" viewBox="0 0 139.71 107.787">
  <defs>
    <linearGradient id="linear-gradient" x1="0.5" y1="1" x2="0.5" gradientUnits="objectBoundingBox">
      <stop offset="0" stop-color="gray" stop-opacity="0.251"/>
      <stop offset="0.54" stop-color="gray" stop-opacity="0.122"/>
      <stop offset="1" stop-color="gray" stop-opacity="0.102"/>
    </linearGradient>
    <linearGradient id="linear-gradient-2" y1="1" y2="-0.001" xlink:href="#linear-gradient"/>
  </defs>
  <path id="Path_1" data-name="Path 1" d="M206,119.138c-5.816,3.679-13.36,3.439-19.97,1.527s-12.684-5.322-19.122-7.745a67.53,67.53,0,0,0-16.8-3.956c-8.209-.849-17.375.184-23.095,6.131-6.369,6.624-5.881,18.571,1.008,24.649,3.5,3.092,8.093,4.61,12.095,7.024s7.7,6.424,7.364,11.085c-.315,4.314-3.983,7.625-7.778,9.7-2.934,1.605-6.548,3.358-6.9,6.683-.341,3.218,2.7,5.739,5.6,7.173a34.772,34.772,0,0,0,30.552-.118c3.363-1.695,6.456-3.948,9.983-5.269,9.262-3.468,19.467.023,29.274,1.3a64.564,64.564,0,0,0,24.9-1.638c4.856-1.3,9.731-3.277,13.143-6.968,2.46-2.662,3.989-6.03,5.433-9.355q2.3-5.321,4.424-10.716a24.859,24.859,0,0,0,1.905-6.672c.4-4.186-1.277-8.324-3.559-11.858a35.384,35.384,0,0,0-52.413-7.955" transform="translate(-118.358 -101.761)" fill="#6c63ff" opacity="0.1"/>
  <ellipse id="Ellipse_1" data-name="Ellipse 1" cx="18.673" cy="3.651" rx="18.673" ry="3.651" transform="translate(0 100.485)" fill="#6c63ff" opacity="0.1"/>
  <ellipse id="Ellipse_2" data-name="Ellipse 2" cx="39.143" cy="3.651" rx="39.143" ry="3.651" transform="translate(35.004 92.86)" fill="#6c63ff" opacity="0.1"/>
  <path id="Path_2" data-name="Path 2" d="M824.35,423.656s5.488-9.72,13.757-12.519a16.917,16.917,0,0,0,8.566-6.408,28.511,28.511,0,0,0,2.528-4.549" transform="translate(-723.634 -353.139)" fill="none" stroke="#535461" stroke-miterlimit="10" stroke-width="2"/>
  <path id="Path_3" data-name="Path 3" d="M1009.328,361.533c-.942.913-5.328,1.859-5.328,1.859s1.077-4.354,2.018-5.269a2.376,2.376,0,1,1,3.31,3.41Z" transform="translate(-878.57 -316.289)" fill="#6c63ff"/>
  <path id="Path_4" data-name="Path 4" d="M990.332,414.893c-1.288.254-5.482-1.336-5.482-1.336s3.27-3.07,4.556-3.326a2.377,2.377,0,1,1,.926,4.663Z" transform="translate(-862.054 -361.767)" fill="#6c63ff"/>
  <path id="Path_5" data-name="Path 5" d="M933.558,477.571c-1.238-.429-4.058-3.919-4.058-3.919s4.373-1,5.613-.572a2.377,2.377,0,1,1-1.554,4.492Z" transform="translate(-814.318 -415.918)" fill="#6c63ff"/>
  <path id="Path_6" data-name="Path 6" d="M869.562,512.579c-1.294-.213-4.662-3.179-4.662-3.179s4.141-1.725,5.435-1.513a2.376,2.376,0,0,1-.773,4.688Z" transform="translate(-758.605 -446.014)" fill="#6c63ff"/>
  <path id="Path_7" data-name="Path 7" d="M958.26,395.465c0,1.312,2.374,5.119,2.374,5.119s2.377-3.805,2.379-5.117a2.377,2.377,0,0,0-4.753,0Z" transform="translate(-839.122 -347.073)" fill="#6c63ff"/>
  <path id="Path_8" data-name="Path 8" d="M887.622,433.266c.392,1.252,3.8,4.174,3.8,4.174s1.131-4.342.739-5.593a2.378,2.378,0,0,0-4.54,1.42Z" transform="translate(-778.103 -379.01)" fill="#6c63ff"/>
  <path id="Path_9" data-name="Path 9" d="M825.926,486.537c.175,1.3,3.037,4.756,3.037,4.756s1.848-4.087,1.673-5.388a2.376,2.376,0,0,0-4.71.633Z" transform="translate(-724.974 -425.294)" fill="#6c63ff"/>
  <path id="Path_10" data-name="Path 10" d="M1009.328,361.533c-.942.913-5.328,1.859-5.328,1.859s1.077-4.354,2.018-5.269a2.376,2.376,0,1,1,3.31,3.41Z" transform="translate(-878.57 -316.289)" opacity="0.25"/>
  <path id="Path_11" data-name="Path 11" d="M990.332,414.893c-1.288.254-5.482-1.336-5.482-1.336s3.27-3.07,4.556-3.326a2.377,2.377,0,1,1,.926,4.663Z" transform="translate(-862.054 -361.767)" opacity="0.25"/>
  <path id="Path_12" data-name="Path 12" d="M933.558,477.571c-1.238-.429-4.058-3.919-4.058-3.919s4.373-1,5.613-.572a2.377,2.377,0,1,1-1.554,4.492Z" transform="translate(-814.318 -415.918)" opacity="0.25"/>
  <path id="Path_13" data-name="Path 13" d="M869.562,512.579c-1.294-.213-4.662-3.179-4.662-3.179s4.141-1.725,5.435-1.513a2.376,2.376,0,0,1-.773,4.688Z" transform="translate(-758.605 -446.014)" opacity="0.25"/>
  <path id="Path_14" data-name="Path 14" d="M958.26,395.465c0,1.312,2.374,5.119,2.374,5.119s2.377-3.805,2.379-5.117a2.377,2.377,0,0,0-4.753,0Z" transform="translate(-839.122 -347.073)" opacity="0.25"/>
  <path id="Path_15" data-name="Path 15" d="M887.622,433.266c.392,1.252,3.8,4.174,3.8,4.174s1.131-4.342.739-5.593a2.378,2.378,0,0,0-4.54,1.42Z" transform="translate(-778.103 -379.01)" opacity="0.25"/>
  <path id="Path_16" data-name="Path 16" d="M825.926,486.537c.175,1.3,3.037,4.756,3.037,4.756s1.848-4.087,1.673-5.388a2.376,2.376,0,0,0-4.71.633Z" transform="translate(-724.974 -425.294)" opacity="0.25"/>
  <path id="Path_17" data-name="Path 17" d="M826.65,371.759s1.077-11.11,7.5-17.018a16.921,16.921,0,0,0,5.236-9.33,28.473,28.473,0,0,0,.468-5.181" transform="translate(-725.617 -301.436)" fill="none" stroke="#535461" stroke-miterlimit="10" stroke-width="2"/>
  <path id="Path_18" data-name="Path 18" d="M923.2,293.07c-.491,1.217-4.117,3.852-4.117,3.852s-.781-4.417-.29-5.64a2.376,2.376,0,0,1,4.4,1.776Z" transform="translate(-804.945 -258.022)" fill="#6c63ff"/>
  <path id="Path_19" data-name="Path 19" d="M923.762,345.583c-1.073.755-5.552,1-5.552,1s1.746-4.127,2.819-4.888a2.376,2.376,0,0,1,2.734,3.886Z" transform="translate(-804.582 -302.328)" fill="#6c63ff"/>
  <path id="Path_20" data-name="Path 20" d="M890.448,426.2c-1.307.11-5.3-1.938-5.3-1.938s3.592-2.687,4.9-2.8a2.376,2.376,0,0,1,.4,4.735Z" transform="translate(-776.07 -371.491)" fill="#6c63ff"/>
  <path id="Path_21" data-name="Path 21" d="M848.269,483.68c-1.27.329-5.549-1.015-5.549-1.015s3.087-3.256,4.357-3.585a2.376,2.376,0,1,1,1.193,4.6Z" transform="translate(-739.477 -421.119)" fill="#6c63ff"/>
  <path id="Path_22" data-name="Path 22" d="M882.6,347.159c.532,1.2,4.245,3.714,4.245,3.714s.631-4.441.1-5.64a2.377,2.377,0,0,0-4.346,1.926Z" transform="translate(-773.693 -304.532)" fill="#6c63ff"/>
  <path id="Path_23" data-name="Path 23" d="M833.505,410.7c.867.985,5.163,2.277,5.163,2.277s-.726-4.427-1.592-5.413A2.379,2.379,0,1,0,833.5,410.7Z" transform="translate(-731.015 -358.805)" fill="#6c63ff"/>
  <path id="Path_24" data-name="Path 24" d="M798.685,484.414c.688,1.118,4.7,3.117,4.7,3.117s.033-4.486-.653-5.6a2.376,2.376,0,1,0-4.05,2.487Z" transform="translate(-701.196 -422.663)" fill="#6c63ff"/>
  <path id="Path_25" data-name="Path 25" d="M281.84,0V97.048h69.8V0Z" transform="translate(-243.068)" fill="url(#linear-gradient)"/>
  <rect id="Rectangle_1" data-name="Rectangle 1" width="68.577" height="3.699" transform="translate(39.384 0.852)" fill="#f6f7f9"/>
  <g id="Group_1" data-name="Group 1" transform="translate(39.384 0.852)" opacity="0.2">
    <rect id="Rectangle_2" data-name="Rectangle 2" width="68.577" height="3.699" fill="#6c63ff"/>
  </g>
  <rect id="Rectangle_3" data-name="Rectangle 3" width="68.577" height="91.645" transform="translate(39.384 4.551)" fill="#f6f7f9"/>
  <circle id="Ellipse_3" data-name="Ellipse 3" cx="0.627" cy="0.627" r="0.627" transform="translate(40.56 2.073)" fill="#f6f7f9"/>
  <circle id="Ellipse_4" data-name="Ellipse 4" cx="0.627" cy="0.627" r="0.627" transform="translate(42.26 2.073)" fill="#f6f7f9"/>
  <circle id="Ellipse_5" data-name="Ellipse 5" cx="0.627" cy="0.627" r="0.627" transform="translate(43.961 2.073)" fill="#f6f7f9"/>
  <g id="Group_2" data-name="Group 2" transform="translate(51.623 10.201)" opacity="0.2">
    <rect id="Rectangle_4" data-name="Rectangle 4" width="44.097" height="1.726" fill="#6c63ff"/>
  </g>
  <rect id="Rectangle_5" data-name="Rectangle 5" width="5.859" height="1.726" transform="translate(89.861 10.201)" fill="#6c63ff"/>
  <g id="Group_3" data-name="Group 3" transform="translate(45.303 45.482)" opacity="0.2">
    <rect id="Rectangle_6" data-name="Rectangle 6" width="27.75" height="19.877" fill="#6c63ff" opacity="0.2"/>
  </g>
  <g id="Group_4" data-name="Group 4" transform="translate(45.303 19.698)" opacity="0.2">
    <rect id="Rectangle_7" data-name="Rectangle 7" width="27.75" height="19.877" fill="#6c63ff" opacity="0.2"/>
  </g>
  <g id="Group_5" data-name="Group 5" transform="translate(45.303 70.931)" opacity="0.2">
    <rect id="Rectangle_8" data-name="Rectangle 8" width="27.75" height="19.877" fill="#6c63ff" opacity="0.2"/>
  </g>
  <g id="Group_6" data-name="Group 6" transform="translate(74.291 45.482)" opacity="0.2">
    <rect id="Rectangle_9" data-name="Rectangle 9" width="27.75" height="19.877" fill="#6c63ff" opacity="0.2"/>
  </g>
  <g id="Group_7" data-name="Group 7" transform="translate(74.291 19.698)" opacity="0.2">
    <rect id="Rectangle_10" data-name="Rectangle 10" width="27.75" height="19.877" fill="#6c63ff" opacity="0.2"/>
  </g>
  <g id="Group_8" data-name="Group 8" transform="translate(74.291 70.931)" opacity="0.2">
    <rect id="Rectangle_11" data-name="Rectangle 11" width="27.75" height="19.877" fill="#6c63ff" opacity="0.2"/>
  </g>
  <path id="Path_26" data-name="Path 26" d="M1006.873,692.73s.982,1.284-.453,3.22-2.614,3.577-2.139,4.782c0,0,2.164-3.6,3.926-3.648S1008.811,694.894,1006.873,692.73Z" transform="translate(-878.72 -605.444)" fill="#3acc6c"/>
  <path id="Path_27" data-name="Path 27" d="M1007.214,692.73a1.581,1.581,0,0,1,.2.4c1.72,2.019,2.634,3.9.982,3.952-1.538.044-3.385,2.8-3.827,3.49a1.524,1.524,0,0,0,.052.158s2.164-3.6,3.926-3.648S1009.152,694.894,1007.214,692.73Z" transform="translate(-879.061 -605.444)" opacity="0.1"/>
  <path id="Path_28" data-name="Path 28" d="M1035.637,702.8c0,.451-.051.817-.113.817s-.114-.366-.114-.817.063-.239.127-.239S1035.637,702.352,1035.637,702.8Z" transform="translate(-905.659 -613.883)" fill="#ffd037"/>
  <path id="Path_29" data-name="Path 29" d="M1036.76,706.6c-.4.216-.743.347-.772.292s.267-.275.663-.491.241-.058.275,0S1037.156,706.387,1036.76,706.6Z" transform="translate(-906.155 -617.138)" fill="#ffd037"/>
  <path id="Path_30" data-name="Path 30" d="M972.293,692.73s-.982,1.284.453,3.22,2.614,3.577,2.139,4.782c0,0-2.164-3.6-3.926-3.648S970.352,694.894,972.293,692.73Z" transform="translate(-849.324 -605.444)" fill="#3acc6c"/>
  <path id="Path_31" data-name="Path 31" d="M972.293,692.73a1.577,1.577,0,0,0-.2.4c-1.72,2.019-2.635,3.9-.982,3.952,1.539.044,3.385,2.8,3.827,3.49a1.241,1.241,0,0,1-.052.158s-2.164-3.6-3.926-3.648S970.352,694.894,972.293,692.73Z" transform="translate(-849.324 -605.444)" opacity="0.1"/>
  <path id="Path_32" data-name="Path 32" d="M972.84,702.8c0,.451.051.817.114.817s.113-.366.113-.817-.063-.239-.125-.239S972.84,702.352,972.84,702.8Z" transform="translate(-851.696 -613.883)" fill="#ffd037"/>
  <path id="Path_33" data-name="Path 33" d="M966.755,706.6c.4.216.743.347.773.292s-.268-.275-.664-.491-.241-.058-.275,0S966.359,706.387,966.755,706.6Z" transform="translate(-846.237 -617.138)" fill="#ffd037"/>
  <ellipse id="Ellipse_6" data-name="Ellipse 6" cx="10.262" cy="1.575" rx="10.262" ry="1.575" transform="translate(115.298 101.957)" fill="#6c63ff" opacity="0.1"/>
  <path id="Path_34" data-name="Path 34" d="M977.1,734.6l-.049.4-.069.567-.029.235-.069.567-.03.237-.069.565L976,743.6c-.07.575-1.008,1.022-2.142,1.022h-4.08c-1.134,0-2.063-.447-2.141-1.022l-.787-6.441-.069-.565-.029-.237-.07-.567-.029-.235-.069-.567-.05-.4c-.039-.318.475-.593,1.11-.593h8.346C976.633,734,977.142,734.275,977.1,734.6Z" transform="translate(-846.259 -641.037)" fill="#65617d"/>
  <path id="Path_35" data-name="Path 35" d="M885.156,683.01l-.069.565H874.759l-.069-.565Z" transform="translate(-754.362 -589.051)" fill="#9d9cb5"/>
  <path id="Path_36" data-name="Path 36" d="M885.671,688.84l-.069.567H875.47l-.07-.567Z" transform="translate(-754.974 -594.079)" fill="#9d9cb5"/>
  <path id="Path_37" data-name="Path 37" d="M886.193,694.67l-.069.567h-9.935l-.069-.567Z" transform="translate(-755.595 -599.107)" fill="#9d9cb5"/>
  <path id="Path_38" data-name="Path 38" d="M683.744,225.188s-.252-.629,1.446-.472,6.572.7,8.679.224,3.364-.626,3.238,0-3.647,2.04-3.647,2.04l-4.56.472-3.363-.535-1.806-1.069Z" transform="translate(-602.358 -201.649)" fill="#6c63ff"/>
  <path id="Path_39" data-name="Path 39" d="M697.14,224.934c-.127.626-3.647,2.04-3.647,2.04l-4.56.472-3.363-.534-1.8-1.069.012-.66a.275.275,0,0,1,.1-.3c.155-.138.519-.245,1.35-.168,1.7.157,6.571.7,8.679.223,1.717-.387,2.87-.559,3.164-.275a.275.275,0,0,1,.074.275Z" transform="translate(-602.387 -201.642)" opacity="0.1"/>
  <path id="Path_40" data-name="Path 40" d="M684.134,243.67a19.685,19.685,0,0,0-8.092,3.584,1.5,1.5,0,0,0-.645-.766,2.264,2.264,0,0,0-.655-.275.66.66,0,0,0-.6.259,3.39,3.39,0,0,0-.532.788,33.373,33.373,0,0,0-8.071-3.606v-.44a2.426,2.426,0,0,1,.032-.31c.016-.118.037-.223.063-.351.413-2.1,2.044-6.9,2.044-6.9h1.845l3.577.743,4.024-.246,4.053-.843.526-.11c.876.688,1.871,5.5,2.262,7.552.05.26.088.475.117.633C684.116,243.564,684.134,243.67,684.134,243.67Z" transform="translate(-586.671 -210.855)" fill="#6c63ff"/>
  <path id="Path_41" data-name="Path 41" d="M666.223,245.6c.106-2.015,1.707-6.383,1.978-7.108h-.5s-1.728,5.09-2.079,7.076a.048.048,0,0,0,0,.015c-.01.054-.019.106-.026.155-.017.118-.028.223-.032.31v.44a33.432,33.432,0,0,1,8.071,3.606,3.391,3.391,0,0,1,.532-.788C672.938,248.19,668.289,246.374,666.223,245.6Z" transform="translate(-586.688 -213.692)" fill="#6c63ff"/>
  <path id="Path_42" data-name="Path 42" d="M745.892,243.345c-.012-.07-.028-.151-.044-.241-.021-.116-.045-.246-.073-.392h0c-.391-2.052-1.385-6.869-2.262-7.552l-.526.11c.319.857,2.376,6.453,2.2,7.546a24.635,24.635,0,0,0-7.979,3.637,1.5,1.5,0,0,1,.645.766,19.685,19.685,0,0,1,8.092-3.584S745.926,243.53,745.892,243.345Z" transform="translate(-648.481 -210.82)" fill="#6c63ff"/>
  <path id="Path_43" data-name="Path 43" d="M667.143,244.687c.1-2.015,1.707-6.383,1.978-7.107h-.506s-1.728,5.09-2.079,7.075v.015q-.015.083-.025.157c-.016.118-.027.223-.032.31v.44a33.4,33.4,0,0,1,8.071,3.606,3.331,3.331,0,0,1,.531-.788C673.856,247.283,669.209,245.463,667.143,244.687Z" transform="translate(-587.481 -212.907)" opacity="0.1"/>
  <path id="Path_44" data-name="Path 44" d="M666.223,245.6c.106-2.015,1.707-6.383,1.978-7.108h-.5s-1.728,5.09-2.079,7.076a.048.048,0,0,0,0,.015c-.01.054-.019.106-.026.155-.017.118-.028.223-.032.31v.44a33.432,33.432,0,0,1,8.071,3.606,3.391,3.391,0,0,1,.532-.788C672.938,248.19,668.289,246.374,666.223,245.6Z" transform="translate(-586.688 -213.692)" fill="#6c63ff"/>
  <path id="Path_45" data-name="Path 45" d="M744.99,242.425l-.044-.241c-.022-.116-.045-.245-.073-.392h0c-.389-2.051-1.385-6.867-2.262-7.552l-.524.111c.319.857,2.376,6.453,2.2,7.546a24.655,24.655,0,0,0-7.979,3.636,1.5,1.5,0,0,1,.645.768,19.663,19.663,0,0,1,8.09-3.585S745.025,242.612,744.99,242.425Z" transform="translate(-647.705 -210.027)" opacity="0.1"/>
  <path id="Path_46" data-name="Path 46" d="M745.892,243.345c-.012-.07-.028-.151-.044-.241-.021-.116-.045-.246-.073-.392h0c-.391-2.052-1.385-6.869-2.262-7.552l-.526.11c.319.857,2.376,6.453,2.2,7.546a24.635,24.635,0,0,0-7.979,3.637,1.5,1.5,0,0,1,.645.766,19.685,19.685,0,0,1,8.092-3.584S745.926,243.53,745.892,243.345Z" transform="translate(-648.481 -210.82)" fill="#6c63ff"/>
  <path id="Path_47" data-name="Path 47" d="M677.742,250.723s3.192,2.008,3.937-.933l.71.19s.234,3.259-4.859,1.4Z" transform="translate(-597.011 -223.438)" opacity="0.1"/>
  <path id="Path_48" data-name="Path 48" d="M677.742,248.893s3.192,2.008,3.937-.933l.71.19s.234,3.259-4.859,1.4Z" transform="translate(-597.011 -221.86)" fill="#6c63ff"/>
  <path id="Path_49" data-name="Path 49" d="M752.07,249.678s.413,2.4,4.786,1.238l-.154-.454s-2.987,1.238-4.069-.912Z" transform="translate(-661.297 -223.231)" opacity="0.1"/>
  <path id="Path_50" data-name="Path 50" d="M752.07,247.848s.413,2.4,4.786,1.238l-.154-.454s-2.987,1.238-4.069-.912Z" transform="translate(-661.297 -221.653)" fill="#6c63ff"/>
  <path id="Path_51" data-name="Path 51" d="M730.91,247.2v5.016h.776s1.073-.387,1.048-2.641a14.544,14.544,0,0,0-.189-2.861Z" transform="translate(-643.048 -220.781)" opacity="0.1"/>
  <path id="Path_52" data-name="Path 52" d="M730,246.287V251.3h.776s1.073-.387,1.048-2.641a14.43,14.43,0,0,0-.19-2.861Z" transform="translate(-642.263 -219.997)" fill="#6c63ff"/>
  <path id="Path_53" data-name="Path 53" d="M695.144,229.385c-.316.589-3.189,1.556-3.7,1.722l-.077.025s-.182.047-.486.11a12.772,12.772,0,0,1-4.54.237c-.226-.044-.459-.092-.7-.138l-.55-.12c-1.788-.4-3.639-.918-3.967-1.376,0,0,.089-1.5.391-1.455s3.665,1.455,3.665,1.455l.048.007c.087.011.283.036.56.067a15.949,15.949,0,0,0,4.632-.022c.059-.017.114-.033.168-.052.094-.032.191-.065.292-.1,1.593-.564,3.978-1.574,3.978-1.574A1.059,1.059,0,0,1,695.144,229.385Z" transform="translate(-600.116 -204.792)" opacity="0.1"/>
  <path id="Path_54" data-name="Path 54" d="M697.14,225.85c-.127.626-3.647,2.04-3.647,2.04l-4.56.472-3.363-.534-1.8-1.069.012-.66a.275.275,0,0,1,.1-.3c.6.182,3.577,1.435,3.577,1.435l.048.007c.087.011.283.036.56.067a15.949,15.949,0,0,0,4.632-.022c.059-.016.114-.033.168-.052.094-.03.191-.065.292-.1,1.44-.51,3.53-1.385,3.917-1.548A.275.275,0,0,1,697.14,225.85Z" transform="translate(-602.387 -202.558)" opacity="0.1"/>
  <path id="Path_55" data-name="Path 55" d="M695.144,227.536c-.316.589-3.189,1.555-3.7,1.721l-.077.026s-.182.045-.486.109a12.772,12.772,0,0,1-4.54.237c-.226-.044-.459-.092-.7-.138l-.55-.12c-1.788-.4-3.639-.918-3.967-1.376,0,0,.089-1.5.391-1.454S685.185,228,685.185,228l.048.007c.087.011.283.037.56.067a15.949,15.949,0,0,0,4.632-.022c.059-.017.114-.033.168-.052.094-.03.191-.065.292-.1,1.593-.564,3.978-1.574,3.978-1.574A1.064,1.064,0,0,1,695.144,227.536Z" transform="translate(-600.116 -203.196)" fill="#6c63ff"/>
  <circle id="Ellipse_7" data-name="Ellipse 7" cx="0.503" cy="0.503" r="0.503" transform="translate(87.903 25.425)" opacity="0.1"/>
  <circle id="Ellipse_8" data-name="Ellipse 8" cx="0.503" cy="0.503" r="0.503" transform="translate(87.903 25.298)" fill="#6c63ff"/>
  <path id="Path_56" data-name="Path 56" d="M711.588,238.577,711.45,240l-.55-.12.138-1.367C711.115,238.524,711.313,238.55,711.588,238.577Z" transform="translate(-625.79 -213.71)" opacity="0.1"/>
  <path id="Path_57" data-name="Path 57" d="M710.688,238.577,710.55,240l-.55-.12.138-1.367C710.213,238.524,710.413,238.55,710.688,238.577Z" transform="translate(-625.014 -213.71)" fill="#6c63ff"/>
  <path id="Path_58" data-name="Path 58" d="M748.772,239.106l-.077.026s-.18.045-.486.109l-.469-1.347c.059-.017.116-.033.169-.052.094-.03.191-.065.292-.1Z" transform="translate(-657.563 -213.045)" opacity="0.1"/>
  <path id="Path_59" data-name="Path 59" d="M749.692,239.106l-.077.026s-.182.045-.486.109l-.469-1.347c.059-.017.114-.033.168-.052.094-.03.191-.065.292-.1Z" transform="translate(-658.356 -213.045)" fill="#6c63ff"/>
  <g id="Group_9" data-name="Group 9" transform="translate(50.492 22.152)" opacity="0.5">
    <path id="Path_60" data-name="Path 60" d="M497.171,219.5a3.632,3.632,0,0,1,1.828.508,10.25,10.25,0,0,0,2.589,0c.913-.2,1.376-.913,1.549-.711a9.546,9.546,0,0,1,.177,2.108l-.787,2.108-1.777,1.319-2.817-.812L497,221.634Z" transform="translate(-491.808 -219.259)" fill="#6c63ff"/>
    <path id="Path_61" data-name="Path 61" d="M503.314,221.432l-.787,2.107-1.777,1.319-2.817-.812L497,221.66l.177-2.132h.041a3.73,3.73,0,0,1,1.788.509,10.251,10.251,0,0,0,2.589,0c.868-.193,1.325-.845,1.513-.735h0a.085.085,0,0,1,.029.022A9.367,9.367,0,0,1,503.314,221.432Z" transform="translate(-491.808 -219.286)" opacity="0.1"/>
    <path id="Path_62" data-name="Path 62" d="M503.314,221.518l-.787,2.108-1.777,1.319-2.817-.812L497,221.747l.177-2.132h.041c.157.673.825,2.8,2.955,2.947,2.19.153,2.812-2.453,2.941-3.171a.085.085,0,0,1,.029.022A9.643,9.643,0,0,1,503.314,221.518Z" transform="translate(-491.808 -219.372)" opacity="0.1"/>
    <path id="Path_63" data-name="Path 63" d="M464.618,219.724s.457,2.97,3,3.148,2.97-3.351,2.97-3.351,3.681,1.206,4.54,3.358,1.5,3.878,1.5,3.878-.275.481-.585.532a22.263,22.263,0,0,0-2.411,1.5,29.425,29.425,0,0,0,.2,4.366c.228.253.153,1.345-.534,1.294s-5.432-1.117-9.492-.228c0,0-1.7.609-1.651-.381s.127-4.874.127-4.874-2.564-1.117-2.716-1.117-.534-.2-.128-.863a15.95,15.95,0,0,0,.915-2.919A7.235,7.235,0,0,1,464.618,219.724Z" transform="translate(-459.255 -219.484)" fill="#6c63ff"/>
    <path id="Path_64" data-name="Path 64" d="M555.63,259.77s.762.559.585.99S555.63,259.77,555.63,259.77Z" transform="translate(-542.372 -254.197)" opacity="0.1"/>
    <path id="Path_65" data-name="Path 65" d="M563.416,263.67a1.376,1.376,0,0,0,0,.758" transform="translate(-549.041 -257.561)" opacity="0.1"/>
    <path id="Path_66" data-name="Path 66" d="M566.172,273.8s.1.688-.2.761" transform="translate(-551.29 -266.297)" opacity="0.1"/>
    <path id="Path_67" data-name="Path 67" d="M485.635,258.48s-1.421,1.238-.94,1.726" transform="translate(-481.11 -253.085)" opacity="0.1"/>
    <path id="Path_68" data-name="Path 68" d="M485.688,280.26s-.023,1.294.369,1.4" transform="translate(-482.052 -271.868)" opacity="0.1"/>
    <path id="Path_69" data-name="Path 69" d="M515.4,307.83a4.458,4.458,0,0,1,1.219-.634" transform="translate(-507.676 -295.098)" opacity="0.1"/>
    <path id="Path_70" data-name="Path 70" d="M522.4,312.473s1.043-.737,1.322-.688" transform="translate(-513.713 -299.055)" opacity="0.1"/>
  </g>
  <g id="Group_10" data-name="Group 10" transform="translate(79.194 47.381)" opacity="0.5">
    <path id="Path_71" data-name="Path 71" d="M687,402.65s8.306.393,12.436.151l-.091,1.09-7.307.963-2.163-.666Z" transform="translate(-684.372 -402.65)" fill="#6c63ff"/>
    <path id="Path_72" data-name="Path 72" d="M699.442,402.8l-.091,1.09-7.306.963-2.164-.666L687,402.65s.171.01.475.022h0c1.8.078,8.291.332,11.854.138Z" transform="translate(-684.372 -402.65)" opacity="0.1"/>
    <path id="Path_73" data-name="Path 73" d="M685.844,418.294c-1.6.963-7.171.03-7.171.03l-1.544-5.5-1.725,5.6c-2.45.878-7.5-.393-7.5-.393l1.967-12.106.34-1.669.321-1.6,3.117.938s.937.636,4.841.454,4.478-1.238,4.478-1.238c.172.049.336.656.5,1.41a15.064,15.064,0,0,0,.77,2.978C684.724,407.977,685.844,418.294,685.844,418.294Z" transform="translate(-667.9 -402.65)" fill="#6c63ff"/>
    <path id="Path_74" data-name="Path 74" d="M697.933,405.091a14.293,14.293,0,0,1-6.477,1.859c-.742.091-6.786-1.82-6.786-1.82l.32-1.6,3.117.938s.937.636,4.841.454,4.478-1.238,4.478-1.238C697.6,403.732,697.768,404.338,697.933,405.091Z" transform="translate(-682.363 -403.409)" opacity="0.1"/>
    <path id="Path_75" data-name="Path 75" d="M699.442,402.8l-.091,1.09-7.306.963-2.164-.666L687,402.65s.171.01.475.022h0l2.641.8s.937.636,4.841.454c3.066-.138,4.079-.825,4.372-1.113Z" transform="translate(-684.372 -402.65)" opacity="0.1"/>
    <path id="Path_76" data-name="Path 76" d="M697.933,404.211a14.293,14.293,0,0,1-6.477,1.859c-.742.091-6.786-1.82-6.786-1.82l.32-1.6,3.117.938s.937.636,4.841.454,4.478-1.238,4.478-1.238C697.6,402.851,697.768,403.458,697.933,404.211Z" transform="translate(-682.363 -402.65)" fill="#6c63ff"/>
    <circle id="Ellipse_9" data-name="Ellipse 9" cx="0.318" cy="0.318" r="0.318" transform="translate(9.366 2.495)" opacity="0.1"/>
    <circle id="Ellipse_10" data-name="Ellipse 10" cx="0.318" cy="0.318" r="0.318" transform="translate(9.366 2.374)" fill="none" stroke="#6c63ff" stroke-miterlimit="10" stroke-width="1"/>
    <path id="Path_77" data-name="Path 77" d="M679.23,463.58s.56,1.665.953,1.634S679.23,463.58,679.23,463.58Z" transform="translate(-677.671 -455.198)" opacity="0.1"/>
    <path id="Path_78" data-name="Path 78" d="M676.59,475.46s.348,1,.711,1.165" transform="translate(-675.395 -465.444)" opacity="0.1"/>
    <path id="Path_79" data-name="Path 79" d="M676.59,483.05a4.392,4.392,0,0,0,.876.863" transform="translate(-675.395 -471.99)" opacity="0.1"/>
    <path id="Path_80" data-name="Path 80" d="M784,437.3s.515.772,0,.938" transform="translate(-768.029 -432.533)" opacity="0.1"/>
    <path id="Path_81" data-name="Path 81" d="M783.563,445.323c-.6-.708-.228.963-.228.963S783.715,445.5,783.563,445.323Z" transform="translate(-767.357 -439.302)" opacity="0.1"/>
    <path id="Path_82" data-name="Path 82" d="M783.186,452.69s-.908,1.347-.726,1.5" transform="translate(-766.679 -445.806)" opacity="0.1"/>
    <path id="Path_83" data-name="Path 83" d="M685.919,425.988a6.624,6.624,0,0,1-2.339-.534l.049-.111c.022.011,2.244.975,3.446.252a1.71,1.71,0,0,0,.758-1.444l.121.01a1.826,1.826,0,0,1-.817,1.538A2.339,2.339,0,0,1,685.919,425.988Z" transform="translate(-681.423 -421.192)" opacity="0.1"/>
    <path id="Path_84" data-name="Path 84" d="M685.919,425.108a6.624,6.624,0,0,1-2.339-.534l.049-.11c.022.01,2.244.974,3.446.25a1.71,1.71,0,0,0,.758-1.444l.121.01a1.826,1.826,0,0,1-.817,1.538A2.338,2.338,0,0,1,685.919,425.108Z" transform="translate(-681.423 -420.433)" fill="#6c63ff"/>
    <path id="Path_85" data-name="Path 85" d="M755.211,427.278a1.884,1.884,0,0,1-.825-.177,2.118,2.118,0,0,1-1.055-1.545l.121-.015a2.019,2.019,0,0,0,.988,1.451c.751.362,1.817.138,3.164-.688l.062.1A5,5,0,0,1,755.211,427.278Z" transform="translate(-741.578 -422.391)" opacity="0.1"/>
    <path id="Path_86" data-name="Path 86" d="M755.211,426.4a1.883,1.883,0,0,1-.825-.177,2.118,2.118,0,0,1-1.055-1.545l.121-.015a2.019,2.019,0,0,0,.988,1.451c.751.362,1.817.138,3.164-.688l.062.1A5,5,0,0,1,755.211,426.4Z" transform="translate(-741.578 -421.632)" fill="#6c63ff"/>
  </g>
  <path id="Path_87" data-name="Path 87" d="M503.34,404s1.561,2.18,2.622,1.969,1.165-.444,2.108-1.969l.773,1.779-.911,2.2-1.079,1.4-2.286-.359-.74-2.5Z" transform="translate(-446.784 -356.434)" fill="#6c63ff"/>
  <path id="Path_88" data-name="Path 88" d="M508.843,405.751l-.911,2.2-1.079,1.4-2.286-.359-.74-2.5-.487-2.517s.138.19.352.451c.524.626,1.521,1.666,2.27,1.513,1.046-.209,1.162-.439,2.07-1.907l.037-.062Z" transform="translate(-446.784 -356.408)" opacity="0.1"/>
  <path id="Path_89" data-name="Path 89" d="M508.843,405.777l-.911,2.2-1.079,1.4-2.286-.359-.74-2.5L503.34,404s.138.19.352.451c.341,1.1,1.074,2.865,2.27,2.85,1.35-.015,1.894-2.251,2.07-3.24l.037-.062Z" transform="translate(-446.784 -356.434)" opacity="0.1"/>
  <path id="Path_90" data-name="Path 90" d="M490.519,401.776s-.53-.063-.254.593.783,2.815.53,3.259-.127,1.651-1.227,1.885l.316,1.248a27.775,27.775,0,0,1-.063,3.154,16.722,16.722,0,0,0-.106,2.856,4.977,4.977,0,0,1-.147,1.821.581.581,0,0,0,.275.93c.55.127,2.9.191,3.322.318a30.72,30.72,0,0,0,3.428,0s1.27-.169,1.587-.275.381-.359.275-.846a32.682,32.682,0,0,1-.487-4.465c.106-.444.128-4.783.128-4.783a1.219,1.219,0,0,1-.825-1.08c0-.8-.318-2.963.338-4.317,0,0-.53-.363-.614-.3a3.406,3.406,0,0,1-.883-.168s-.413,3.683-2.139,3.7-2.5-3.7-2.5-3.7S491.493,401.269,490.519,401.776Z" transform="translate(-434.788 -354.275)" fill="#6c63ff"/>
  <path id="Path_91" data-name="Path 91" d="M515.49,489.38s.356.868.951.995S515.49,489.38,515.49,489.38Z" transform="translate(-457.262 -430.068)" opacity="0.1"/>
  <path id="Path_92" data-name="Path 92" d="M511.49,494.3s1.15.931,1.1,1.123" transform="translate(-453.813 -434.311)" opacity="0.1"/>
  <path id="Path_93" data-name="Path 93" d="M494.72,454.3s.911.614.911,1.058" transform="translate(-439.35 -399.814)" opacity="0.1"/>
  <path id="Path_94" data-name="Path 94" d="M496.532,461.539a4.959,4.959,0,0,0-.422-1.078" transform="translate(-440.548 -405.127)" opacity="0.1"/>
  <path id="Path_95" data-name="Path 95" d="M496.11,470.76a7.923,7.923,0,0,1,.422.974" transform="translate(-440.548 -414.01)" opacity="0.1"/>
  <path id="Path_96" data-name="Path 96" d="M542.989,459.53s-1.184.36-1.08.8" transform="translate(-480.041 -404.325)" opacity="0.1"/>
  <path id="Path_97" data-name="Path 97" d="M541.91,478.362s1.552-1.8,1.085-1.757S541.91,478.362,541.91,478.362Z" transform="translate(-480.048 -419.05)" opacity="0.1"/>
  <g id="Group_11" data-name="Group 11" transform="translate(54.64 47.222)" opacity="0.1">
    <path id="Path_98" data-name="Path 98" d="M545.932,425.988c0-.371-.067-1.032-.076-1.768-.008.845.076,1.626.076,2.043a1.212,1.212,0,0,0,.825,1.078v-.275A1.216,1.216,0,0,1,545.932,425.988Z" transform="translate(-538.091 -421.094)"/>
    <path id="Path_99" data-name="Path 99" d="M551.861,486.742a2.122,2.122,0,0,1,.037.219,1.374,1.374,0,0,0-.037-.494c-.091-.413-.459-3.062-.5-4.1A39.243,39.243,0,0,0,551.861,486.742Z" transform="translate(-542.839 -471.245)"/>
    <path id="Path_100" data-name="Path 100" d="M491.348,469.552a12.356,12.356,0,0,1,.125-2.064,11.961,11.961,0,0,0,.08-1.868,9.5,9.5,0,0,1-.08,1.593A14.77,14.77,0,0,0,491.348,469.552Z" transform="translate(-491.082 -456.799)"/>
    <path id="Path_101" data-name="Path 101" d="M495.3,402.052c.973-.508.952-.169.952-.169s.762,3.725,2.5,3.7,2.146-3.7,2.146-3.7a3.449,3.449,0,0,0,.889.168c.084-.065.366.138.521.237.029-.073.059-.144.094-.213,0,0-.53-.363-.615-.3a3.439,3.439,0,0,1-.889-.168s-.413,3.683-2.139,3.7-2.5-3.7-2.5-3.7.021-.338-.952.169c0,0-.431-.05-.311.425C495.067,402.024,495.3,402.052,495.3,402.052Z" transform="translate(-494.212 -401.497)"/>
    <path id="Path_102" data-name="Path 102" d="M489.551,503.743c.138-.051.175-.993.166-1.513-.007.523-.055,1.2-.166,1.238s-.165.275-.122.5C489.45,503.849,489.494,503.762,489.551,503.743Z" transform="translate(-489.414 -488.372)"/>
    <path id="Path_103" data-name="Path 103" d="M491.638,429.985a1.183,1.183,0,0,0,.065-.565.726.726,0,0,1-.065.29c-.255.444-.128,1.651-1.228,1.885l.066.259C491.5,431.587,491.389,430.422,491.638,429.985Z" transform="translate(-490.273 -425.579)"/>
  </g>
  <path id="Path_104" data-name="Path 104" d="M507.428,586.448c-.52.946-5.8,0-5.8,0l.014-.095.1-.733h5.562l.106.732Z" transform="translate(-445.309 -513.069)" fill="#6c63ff"/>
  <path id="Path_105" data-name="Path 105" d="M507.428,590.792c-.52.946-5.8,0-5.8,0l.014-.095c.253,0,4.072-.091,5.778,0Z" transform="translate(-445.309 -517.413)" opacity="0.1"/>
  <path id="Path_106" data-name="Path 106" d="M473.505,591.382h0s-.946.237-2.414,4.212a43.925,43.925,0,0,0-1.988,9.112s-.825,1.4,2.7,1.491c0,0-.283.923,1.7.781a10.279,10.279,0,0,0,1.7-.14s1.278-.8,1.846-.663a2.992,2.992,0,0,1,1.538.71c.615.52,2.581.308,2.6-.094a3.712,3.712,0,0,0,0-.593s3.006.19,2.438-1.988-1.041-5.752-1.041-5.752-1.538-6.982-3.291-7.076S473.505,591.382,473.505,591.382Z" transform="translate(-417.184 -518.003)" fill="#6c63ff"/>
  <rect id="Rectangle_12" data-name="Rectangle 12" width="12.122" height="0.095" transform="matrix(0.092, -0.996, 0.996, 0.092, 54.574, 88.198)" opacity="0.1"/>
  <rect id="Rectangle_13" data-name="Rectangle 13" width="12.71" height="0.095" transform="translate(57.972 88.828) rotate(-89.78)" opacity="0.1"/>
  <path id="Path_107" data-name="Path 107" d="M535.18,611.6" transform="translate(-474.244 -535.475)" fill="none" stroke="#6c63ff" stroke-miterlimit="10" stroke-width="1"/>
  <rect id="Rectangle_14" data-name="Rectangle 14" width="0.095" height="12.766" transform="translate(60.897 76.119) rotate(-2.13)" opacity="0.1"/>
  <path id="Path_108" data-name="Path 108" d="M548.308,622.145a61.011,61.011,0,0,0-1.418-12.292l.092-.023a61.388,61.388,0,0,1,1.421,12.319Z" transform="translate(-484.343 -533.948)" opacity="0.1"/>
  <path id="Path_109" data-name="Path 109" d="M502.37,596.8s-.165.095,0,.55" transform="translate(-445.884 -522.711)" opacity="0.1"/>
  <path id="Path_110" data-name="Path 110" d="M505.027,596.8s-.45.283,0,.758" transform="translate(-448.066 -522.711)" opacity="0.1"/>
  <path id="Path_111" data-name="Path 111" d="M536.9,596.8s.615.591.473.758" transform="translate(-475.727 -522.711)" opacity="0.1"/>
  <path id="Path_112" data-name="Path 112" d="M540.5,595.77s.1.71.451.9" transform="translate(-478.832 -521.823)" opacity="0.1"/>
  <g id="Group_12" data-name="Group 12" transform="translate(82.736 72.454)" opacity="0.5">
    <path id="Path_113" data-name="Path 113" d="M722.275,585.284s2.322-.924,3.326.2-.688,2.5-.688,2.5l-.71,1.417-1.67-.183-.393-1.959Z" transform="translate(-718.22 -584.926)" fill="#6c63ff"/>
    <path id="Path_114" data-name="Path 114" d="M724.913,587.97l-.71,1.417-1.67-.177-.393-1.958.138-1.98.037-.014c.294-.109,2.282-.8,3.233.153a.719.719,0,0,1,.056.058C726.605,586.591,724.913,587.97,724.913,587.97Z" transform="translate(-718.22 -584.913)" opacity="0.1"/>
    <path id="Path_115" data-name="Path 115" d="M724.913,590.131l-.71,1.417-1.67-.177-.393-1.958.138-1.98.037-.014a3.8,3.8,0,0,0,1.184,2.339l.019.014.472-.039a4.065,4.065,0,0,0,1.557-2.165.72.72,0,0,1,.056.058C726.605,588.753,724.913,590.131,724.913,590.131Z" transform="translate(-718.22 -587.075)" opacity="0.1"/>
    <path id="Path_116" data-name="Path 116" d="M704.393,595.7s-.512,6.518-.373,7.3-.3.846-.3.846-1.852.413-2.2.138a2.106,2.106,0,0,0-.945-.329,4.879,4.879,0,0,1-1.989.08,4.534,4.534,0,0,0-1.634-.138s-.787.473-1,.374-.492-.059-1.123-.235-.985-.336-.651-1.418a22.773,22.773,0,0,0,.021-4.923,21,21,0,0,0-.492-2.614c-.277-1.2.472-.945.472-.945,1.754-.905,1.025-2.678.75-3.465s.157-.825.373-.825,1.044-.708,1.044-.708l.336-.3,1.023-.919a3.945,3.945,0,0,0,1.217,2.55l.019.015.472-.04a4.312,4.312,0,0,0,1.614-2.339,2.982,2.982,0,0,0,.787.748,13.5,13.5,0,0,0,1.4.867c.825.492.217.985.217.985-1,3.425.413,3.577.413,3.577C704.886,594.138,704.393,595.7,704.393,595.7Z" transform="translate(-693.644 -587.248)" fill="#6c63ff"/>
    <path id="Path_117" data-name="Path 117" d="M713.676,601.69s-.3.158-.3.334" transform="translate(-710.665 -599.382)" opacity="0.1"/>
    <path id="Path_118" data-name="Path 118" d="M714.734,604.12s-.393.413-.325.532" transform="translate(-711.546 -601.478)" opacity="0.1"/>
    <path id="Path_119" data-name="Path 119" d="M715.532,608s-.3.315-.177.492" transform="translate(-712.344 -604.824)" opacity="0.1"/>
    <path id="Path_120" data-name="Path 120" d="M717.082,591.8l-1.238,1.2a5.435,5.435,0,0,0-1-2.841l1.024-.919A3.939,3.939,0,0,0,717.082,591.8Z" transform="translate(-711.924 -588.645)" opacity="0.1"/>
    <path id="Path_121" data-name="Path 121" d="M717.951,590.084l-1.238,1.2a5.443,5.443,0,0,0-1-2.842l1.023-.919A3.955,3.955,0,0,0,717.951,590.084Z" transform="translate(-712.675 -587.161)" fill="#6c63ff"/>
    <path id="Path_122" data-name="Path 122" d="M738.831,591.444c-.5.773-1.416,2.815-1.416,2.815l-.985-1.22a4.317,4.317,0,0,0,1.614-2.339A3.091,3.091,0,0,0,738.831,591.444Z" transform="translate(-730.544 -589.904)" opacity="0.1"/>
    <path id="Path_123" data-name="Path 123" d="M737.968,589.742c-.494.774-1.415,2.816-1.415,2.816l-.982-1.219A4.312,4.312,0,0,0,737.184,589,3.12,3.12,0,0,0,737.968,589.742Z" transform="translate(-729.802 -588.438)" fill="#6c63ff"/>
    <path id="Path_124" data-name="Path 124" d="M745.661,686.14a12.063,12.063,0,0,1-.331,1.89" transform="translate(-738.22 -672.215)" opacity="0.1"/>
    <path id="Path_125" data-name="Path 125" d="M760.33,688.43a6.6,6.6,0,0,1,.138,1.575" transform="translate(-751.156 -674.19)" opacity="0.1"/>
    <path id="Path_126" data-name="Path 126" d="M723.088,689s-.216,1.2,0,1.339" transform="translate(-718.955 -674.681)" opacity="0.1"/>
    <path id="Path_127" data-name="Path 127" d="M713.5,687.71a14.988,14.988,0,0,0-.138,1.674" transform="translate(-710.644 -673.569)" opacity="0.1"/>
    <path id="Path_128" data-name="Path 128" d="M759.26,637.47s-.55.433-.512.55" transform="translate(-749.79 -630.24)" opacity="0.1"/>
    <path id="Path_129" data-name="Path 129" d="M761.112,639.48s-1.054.886-.527.787S761.112,639.48,761.112,639.48Z" transform="translate(-751.249 -631.973)" opacity="0.1"/>
  </g>
  <path id="Path_130" data-name="Path 130" d="M161.157,372.951l.007-.01-.012-.01h0l-.074-.05.015.011a.246.246,0,0,0-.325.072l-.03.043h0l-1.671,2.4-.292.428c-.882-.266-2.314.852-3.039,1.493-.045.04-.088.077-.127.113-.058-.129-.092-.212-.092-.212-.036.393-1.425.984-1.75,1.2a1.17,1.17,0,0,1-.484.162,5.9,5.9,0,0,0-1.11-3.069l-2.827-3.6a3.175,3.175,0,0,1,.289-1.908c.023-.047.047-.094.073-.138h.014a3.13,3.13,0,0,0-.177.94c.007.243.232,1.424.55,1.376a.173.173,0,0,0,.162-.077,1.919,1.919,0,0,0,.263-1.259,2.579,2.579,0,0,1-.045.406c.021-.385-.023-.792-.023-1.083,0-.116,0-.23.008-.345h.034v0h.036a3.8,3.8,0,0,0,1.726-.8.926.926,0,0,0,.649-.3.631.631,0,0,1-.122.589,1.027,1.027,0,0,0,.845-.658,2.3,2.3,0,0,0,.107-1.1,7.648,7.648,0,0,1-.081-1.118,4.118,4.118,0,0,0,.033-.609,1.174,1.174,0,0,0-.033-.184h.011a.275.275,0,0,0,.2-.077.917.917,0,0,0,.248-.539,4.592,4.592,0,0,0,.146-1.281c-.008.131-.025.263-.044.393a1.73,1.73,0,0,0-.362-1.336,2.637,2.637,0,0,0-.843-.535.618.618,0,0,1-.275-.2.8.8,0,0,1-.085-.341,2.2,2.2,0,0,0-1.465-1.513,3.216,3.216,0,0,0-2.758-.091,8.747,8.747,0,0,0-1.1.841c-.465.354-1,.6-1.5.909a3,3,0,0,0-1.206,1.23,5.8,5.8,0,0,0-.045,2.656,4.323,4.323,0,0,1-1.658,3.714,1.488,1.488,0,0,0-.365.315.393.393,0,0,0-.03.45c.059.077.153.121.217.194a.616.616,0,0,1,.054.565,3.545,3.545,0,0,1-.963,1.632c.021.146.2.2.348.226a8.014,8.014,0,0,0,1.176.085h.169c-.018.045-.037.094-.056.144a4.575,4.575,0,0,0-.4,1.953,27.623,27.623,0,0,1,.36,5.314,39.031,39.031,0,0,0,.349,5.516s.076.374.206.933c-.34.8-.728,1.689-.922,2.046-.391.714-.2,4.359,1.149,5.98,0,0,.55.787.413,1.072a1.342,1.342,0,0,0,.025.787l.213,4.717a12.225,12.225,0,0,1-.1,1.442,8.9,8.9,0,0,1-1.878,1.918c-.645.263-5.457,6.1-5.457,6.1s.039.07.114.184l-.138.157-.923,1.07-.073.084c-.173-.033-1.328-.242-2.242-.308h-.091v-.016a3.422,3.422,0,0,0-.963.026.309.309,0,0,0-.16.083c-.312.382-.48,6.386-.48,6.386s.333,3.006,1.376,3.174a.55.55,0,0,0,.165.03h.045a1.437,1.437,0,0,0,1.238-.772,1.2,1.2,0,0,0,.1-.275,2.217,2.217,0,0,1,.2-1.274c.325-.739.931-2.039.931-2.039s1.1-1.157.9-1.718c.03-.045.066-.095.1-.151.413-.589,1.249-1.751,1.926-2.527a1.987,1.987,0,0,1,.138-.149,3.379,3.379,0,0,0,.768.221,2.794,2.794,0,0,0,1.418-1.31,7.789,7.789,0,0,1,1.49-1.724l-.022.175-.023,5.742a4.105,4.105,0,0,0,.707.389v.138a18.43,18.43,0,0,1-.149,2.447l-.021.128c-.085-.061-.16-.081-.206-.034a6.332,6.332,0,0,0-.356,2.216v.063c-.034.63-.393,1.546.688,1.593.809.034,4.3.087,6.162.114a4.148,4.148,0,0,0,2.751-.975c.593-.508.952-1.112.144-1.556-.05-.027-.1-.054-.16-.08l-1.788-.275-3.055-1.56s-.018-.944-.385-.787a1.032,1.032,0,0,0-.31.122c-.018-.034-.037-.072-.055-.11a3.515,3.515,0,0,1-.377-1.59,1.126,1.126,0,0,1,.007-.151,3.045,3.045,0,0,0,.253-.26,10.492,10.492,0,0,1,.217-2.549c.241-.4.986-4.5.986-4.5a1.942,1.942,0,0,1,.5-1.215c.481-.453.312-1.764.312-1.764a2.12,2.12,0,0,0,.89-1.524c.216-1.167.915-3.714.915-3.714s1.443-3.765,1.348-6.146a17.987,17.987,0,0,1,.138-3.622l.3-5.536v-.085c.12.091.2.165.2.165v-.061c.044.037.069.061.069.061s.154-2.512.1-3.508a6.838,6.838,0,0,0,2.2-1c.107-.356,1.552-1.483,1.552-1.483a.24.24,0,0,1-.088-.033c.045-.021.092-.045.138-.072.946-.506,2.7-1.986,2.409-2.889l1.926-2.764a.469.469,0,0,0-.048-.587Z" transform="translate(-126.933 -318.369)" fill="url(#linear-gradient-2)"/>
  <path id="Path_131" data-name="Path 131" d="M298.641,482.421a1.255,1.255,0,0,1-.461.175c-.6.018-1.1-1.609-1.1-1.609s.171-.173.443-.413c.806-.717,2.5-2.04,3.289-1.3C301.706,480.1,299.683,481.861,298.641,482.421Z" transform="translate(-268.898 -421.164)" fill="#ecb4b6"/>
  <path id="Path_132" data-name="Path 132" d="M217.413,764.289l-2.219,2.4s-2.052.023-1.651-1.109a4.137,4.137,0,0,0,.171-.754,18.52,18.52,0,0,0,.144-2.424c0-.531-.008-.9-.008-.9s3.231-1.416,2.9.059a2.772,2.772,0,0,0-.066.561,3.513,3.513,0,0,0,.369,1.575A3.567,3.567,0,0,0,217.413,764.289Z" transform="translate(-196.808 -664.22)" fill="#ecb4b6"/>
  <path id="Path_133" data-name="Path 133" d="M217.413,781.89l-2.219,2.4s-2.052.023-1.651-1.109a4.136,4.136,0,0,0,.171-.754,4.729,4.729,0,0,1,.714.9s1.416.413,1.8-.825a2.1,2.1,0,0,1,.825-1.2A3.564,3.564,0,0,0,217.413,781.89Z" transform="translate(-196.808 -681.821)" opacity="0.1"/>
  <path id="Path_134" data-name="Path 134" d="M219.847,785.284a4.036,4.036,0,0,1-2.7.963c-1.83-.026-5.248-.08-6.042-.113-1.062-.047-.71-.953-.675-1.578v-.062a6.226,6.226,0,0,1,.349-2.194c.212-.212.937.944.937.944s1.416.413,1.8-.825,1.18-1.358,1.18-1.358c.359-.155.377.779.377.779l3,1.545,1.758.275c.056.026.107.052.155.078C220.782,784.183,220.429,784.78,219.847,785.284Z" transform="translate(-194.095 -681.608)" fill="#c17174"/>
  <circle id="Ellipse_11" data-name="Ellipse 11" cx="0.129" cy="0.129" r="0.129" transform="translate(20.087 101.036)" fill="#fff" opacity="0.25"/>
  <circle id="Ellipse_12" data-name="Ellipse 12" cx="0.129" cy="0.129" r="0.129" transform="translate(21.304 101.638)" fill="#fff" opacity="0.25"/>
  <circle id="Ellipse_13" data-name="Ellipse 13" cx="0.129" cy="0.129" r="0.129" transform="translate(21.928 101.917)" fill="#fff" opacity="0.25"/>
  <circle id="Ellipse_14" data-name="Ellipse 14" cx="0.129" cy="0.129" r="0.129" transform="translate(23.225 102.415)" fill="#fff" opacity="0.25"/>
  <circle id="Ellipse_15" data-name="Ellipse 15" cx="0.129" cy="0.129" r="0.129" transform="translate(22.565 102.204)" fill="#fff" opacity="0.25"/>
  <path id="Path_135" data-name="Path 135" d="M219.847,802.2a4.036,4.036,0,0,1-2.7.963c-1.83-.026-5.248-.08-6.042-.113-1.062-.047-.71-.953-.675-1.578l6.668.413s2.731-.413,2.889-1.227C220.782,801.1,220.429,801.7,219.847,802.2Z" transform="translate(-194.095 -698.527)" fill="#c17174"/>
  <path id="Path_136" data-name="Path 136" d="M219.847,802.2a4.036,4.036,0,0,1-2.7.963c-1.83-.026-5.248-.08-6.042-.113-1.062-.047-.71-.953-.675-1.578l6.668.413s2.731-.413,2.889-1.227C220.782,801.1,220.429,801.7,219.847,802.2Z" transform="translate(-194.095 -698.527)" fill="#fff" opacity="0.25"/>
  <path id="Path_137" data-name="Path 137" d="M160.134,732.088a4.6,4.6,0,0,0-.669.671c-.662.768-1.48,1.926-1.886,2.5-.157.226-.252.367-.252.367l-.886-.131s-.955-1.462-.942-1.5.757-1.605.757-1.605l.288-.337L157.45,731l.413-.479S160.933,731.51,160.134,732.088Z" transform="translate(-146.794 -638.036)" fill="#ecb4b6"/>
  <path id="Path_138" data-name="Path 138" d="M157.579,744.905c-.157.226-.252.367-.252.367l-.886-.131s-.955-1.462-.942-1.5.757-1.608.757-1.608l.288-.337.094.018h.226c-.791.825.058,2.641.058,2.641A.964.964,0,0,1,157.579,744.905Z" transform="translate(-146.794 -647.677)" opacity="0.1"/>
  <path id="Path_139" data-name="Path 139" d="M139.023,745.2s-.59,1.274-.909,2.006a2.215,2.215,0,0,0-.2,1.261,1.235,1.235,0,0,1-.1.275,1.389,1.389,0,0,1-1.208.765h-.058c-1.076-.028-1.417-3.15-1.417-3.15s.165-5.944.472-6.328a.3.3,0,0,1,.155-.083,3.3,3.3,0,0,1,.948-.026c.973.07,2.223.31,2.223.31h.224c-.791.825.058,2.643.058,2.643a.972.972,0,0,1,.673.565C140.177,743.968,139.023,745.2,139.023,745.2Z" transform="translate(-129.227 -646.123)" fill="#c17174"/>
  <circle id="Ellipse_16" data-name="Ellipse 16" cx="0.129" cy="0.129" r="0.129" transform="translate(8.368 97.178)" fill="#fff" opacity="0.25"/>
  <circle id="Ellipse_17" data-name="Ellipse 17" cx="0.129" cy="0.129" r="0.129" transform="translate(8.303 98.209)" fill="#fff" opacity="0.25"/>
  <path id="Path_140" data-name="Path 140" d="M137.183,748.552a1.39,1.39,0,0,1-1.208.765h-.056c-1.076-.028-1.418-3.15-1.418-3.15s.165-5.944.472-6.328a.294.294,0,0,1,.155-.083,3.3,3.3,0,0,1,.948-.026c-.018,1.069-.069,4.446,0,4.782A28.965,28.965,0,0,0,137.183,748.552Z" transform="translate(-128.684 -645.959)" fill="#c17174"/>
  <path id="Path_141" data-name="Path 141" d="M137.183,748.552a1.39,1.39,0,0,1-1.208.765h-.056c-1.076-.028-1.418-3.15-1.418-3.15s.165-5.944.472-6.328a.294.294,0,0,1,.155-.083,3.3,3.3,0,0,1,.948-.026c-.018,1.069-.069,4.446,0,4.782A28.965,28.965,0,0,0,137.183,748.552Z" transform="translate(-128.684 -645.959)" fill="#fff" opacity="0.25"/>
  <path id="Path_142" data-name="Path 142" d="M135.908,749.641c-1.076-.027-1.418-3.15-1.418-3.15s.165-5.944.472-6.328a.3.3,0,0,1,.155-.083,4.313,4.313,0,0,1,.245,2.713c-.336,3.1.069,3.292.069,3.292A27.553,27.553,0,0,1,135.908,749.641Z" transform="translate(-128.675 -646.28)" fill="#c17174"/>
  <path id="Path_143" data-name="Path 143" d="M135.908,749.641c-1.076-.027-1.418-3.15-1.418-3.15s.165-5.944.472-6.328a.3.3,0,0,1,.155-.083,4.313,4.313,0,0,1,.245,2.713c-.336,3.1.069,3.292.069,3.292A27.553,27.553,0,0,1,135.908,749.641Z" transform="translate(-128.675 -646.28)" opacity="0.1"/>
  <path id="Path_144" data-name="Path 144" d="M298.641,491.937a1.254,1.254,0,0,1-.461.175c-.6.018-1.1-1.61-1.1-1.61s.171-.173.443-.413A5.792,5.792,0,0,0,298.641,491.937Z" transform="translate(-268.898 -430.681)" opacity="0.1"/>
  <path id="Path_145" data-name="Path 145" d="M276.725,490.722a1.513,1.513,0,0,0,.813-.176c.318-.212,1.681-.8,1.717-1.186,0,0,.813,1.981,1.274,2.052,0,0-1.416,1.114-1.522,1.468s-2.867,1.222-2.867,1.222Z" transform="translate(-250.839 -430.051)" fill="#ff748e"/>
  <path id="Path_146" data-name="Path 146" d="M276.725,490.722a1.513,1.513,0,0,0,.813-.176c.318-.212,1.681-.8,1.717-1.186,0,0,.813,1.981,1.274,2.052,0,0-1.416,1.114-1.522,1.468s-2.867,1.222-2.867,1.222Z" transform="translate(-250.839 -430.051)" opacity="0.1"/>
  <path id="Path_147" data-name="Path 147" d="M172.355,732.088a4.6,4.6,0,0,0-.669.671A4.772,4.772,0,0,1,169.67,731l.413-.479S173.155,731.51,172.355,732.088Z" transform="translate(-159.016 -638.036)" opacity="0.1"/>
  <path id="Path_148" data-name="Path 148" d="M177.533,669a13.831,13.831,0,0,1-2.363,2.573c-.633.26-5.35,6.039-5.35,6.039a4.541,4.541,0,0,0,2.878,2.169,2.753,2.753,0,0,0,1.392-1.3c.378-.9,3.35-3.431,3.35-3.431Z" transform="translate(-159.145 -584.979)" fill="#5e5a6b"/>
  <path id="Path_149" data-name="Path 149" d="M177.533,669a13.831,13.831,0,0,1-2.363,2.573c-.633.26-5.35,6.039-5.35,6.039a4.541,4.541,0,0,0,2.878,2.169,2.753,2.753,0,0,0,1.392-1.3c.378-.9,3.35-3.431,3.35-3.431Z" transform="translate(-159.145 -584.979)" opacity="0.1"/>
  <path id="Path_150" data-name="Path 150" d="M187.78,725.189a7.548,7.548,0,0,0,1.575,0C190.286,725.1,189.585,725.666,187.78,725.189Z" transform="translate(-174.634 -633.429)" opacity="0.1"/>
  <path id="Path_151" data-name="Path 151" d="M184.69,729.62s1.238.707,1.717.354S185.946,730.315,184.69,729.62Z" transform="translate(-171.969 -637.259)" opacity="0.1"/>
  <path id="Path_152" data-name="Path 152" d="M219.021,761.537a2.773,2.773,0,0,0-.066.561,2.53,2.53,0,0,1-2.827.283c0-.531-.008-.9-.008-.9S219.351,760.057,219.021,761.537Z" transform="translate(-199.076 -664.205)" opacity="0.1"/>
  <path id="Path_153" data-name="Path 153" d="M218.383,540.937l-.034.652-.294,5.482a17.232,17.232,0,0,0-.138,3.585c.1,2.358-1.326,6.094-1.326,6.094s-.688,2.524-.9,3.68a2.1,2.1,0,0,1-.872,1.513s.165,1.3-.307,1.746a1.937,1.937,0,0,0-.5,1.2s-.732,4.058-.963,4.46a10.758,10.758,0,0,0-.213,2.524c-1.533,1.816-3.773.165-3.773.165l.023-5.686s.637-5.237,1.109-5.969a7.261,7.261,0,0,0,.472-2.736l-.21-4.677a1.261,1.261,0,0,1-.023-.779c.144-.283-.4-1.061-.4-1.061-1.322-1.605-1.513-5.215-1.127-5.915s1.53-3.538,1.53-3.538l1.578-.92,2.852.084Z" transform="translate(-192.705 -474.38)" fill="#5e5a6b"/>
  <path id="Path_154" data-name="Path 154" d="M230.1,744.15s.373,1.292.673,1.433S230.1,744.15,230.1,744.15Z" transform="translate(-211.132 -649.791)" opacity="0.1"/>
  <path id="Path_155" data-name="Path 155" d="M233.83,712.9s.963.762,1.376.761S233.83,712.9,233.83,712.9Z" transform="translate(-214.349 -622.839)" opacity="0.1"/>
  <path id="Path_156" data-name="Path 156" d="M228.663,423.285v1.557l-1.028-.443-1.025-.442-2.231-2.194a16.892,16.892,0,0,1-2.709-2.19c-.539-.6-.81-1.158-.336-1.455a2.959,2.959,0,0,0,.618-.541,10.155,10.155,0,0,0,1.23-1.816c.015-.026.03-.052.044-.078.459-.843.763-1.563.763-1.563a9.3,9.3,0,0,1,2.124,1c.067.047.131.095.191.144.464.38.695.825.267,1.26a3.3,3.3,0,0,0-.3.363h0a2.975,2.975,0,0,0-.19.3c-.025.047-.05.092-.072.138a3.172,3.172,0,0,0-.283,1.889Z" transform="translate(-203.361 -365.162)" fill="#ecb4b6"/>
  <path id="Path_157" data-name="Path 157" d="M274.4,394.37c.054.094.128.173.177.268a1.29,1.29,0,0,1,.078.66,3.755,3.755,0,0,0,.069,1.054,4.909,4.909,0,0,1,.22.93,2.44,2.44,0,0,1-.444,1.256.9.9,0,0,0,.647-.3.627.627,0,0,1-.118.582,1,1,0,0,0,.825-.651,2.269,2.269,0,0,0,.106-1.1,7.508,7.508,0,0,1-.08-1.107,4.052,4.052,0,0,0,.032-.6,2.191,2.191,0,0,0-.517-1.073l-.479-.658a.338.338,0,0,0-.138-.125C274.322,393.308,274.27,394.142,274.4,394.37Z" transform="translate(-249.283 -347.354)" fill="#464353"/>
  <path id="Path_158" data-name="Path 158" d="M239.75,416.509a3.307,3.307,0,0,0-.3.363h0a2.982,2.982,0,0,0-.19.3c-.025.047-.05.092-.072.138a3.714,3.714,0,0,1-2.78-1.5c-.015-.021-.03-.041-.044-.063.015-.026.03-.052.044-.078.459-.843.763-1.563.763-1.563a9.3,9.3,0,0,1,2.124,1c.067.047.131.095.191.144C239.941,415.628,240.172,416.069,239.75,416.509Z" transform="translate(-216.531 -365.144)" opacity="0.1"/>
  <path id="Path_159" data-name="Path 159" d="M238.8,386.17a3.714,3.714,0,0,1-3.042,3.654,3.761,3.761,0,0,1-.673.06h-.138a3.714,3.714,0,1,1,3.852-3.714Z" transform="translate(-212.228 -337.856)" fill="#ecb4b6"/>
  <path id="Path_160" data-name="Path 160" d="M253.363,454.6s1.871,1.055,1.392.165l-2.442-3.61h0l2.772,3.562s1.769,2.431.8,4.1a6.219,6.219,0,0,0,.023,1.722,29.9,29.9,0,0,1-.047,3.852s-.662-.614-1.015-.5-2.849.326-2.849.326Z" transform="translate(-230.02 -397.106)" opacity="0.1"/>
  <path id="Path_161" data-name="Path 161" d="M256.112,541.395l-.034.652c-.224-.162-.537-.344-.744-.275-.354.118-2.853.332-2.853.332l.114-.813Z" transform="translate(-230.434 -474.837)" opacity="0.1"/>
  <path id="Path_162" data-name="Path 162" d="M253.847,454.6s1.872,1.055,1.392.165l-2.442-3.61h0l2.772,3.562s1.769,2.431.8,4.1a6.22,6.22,0,0,0,.023,1.722,29.9,29.9,0,0,1-.047,3.852s-.66-.614-1.014-.5-2.854.332-2.854.332Z" transform="translate(-230.434 -397.106)" fill="#464353"/>
  <path id="Path_163" data-name="Path 163" d="M219.09,446.565a12.885,12.885,0,0,1-.575,2.484,25.129,25.129,0,0,1-.758,4.346c-.428,1-.237,2.359-.472,4.884a3.2,3.2,0,0,1-.773,1.955,2.9,2.9,0,0,1-2.308.8l-.173-.014c-1.18-.117-2.312-5.8-2.312-5.8a40.031,40.031,0,0,1-.33-5.5,27.084,27.084,0,0,0-.351-5.256,4.566,4.566,0,0,1,.389-1.934c.122-.322.223-.55.223-.55a5.7,5.7,0,0,1,1.062-1.934.974.974,0,0,1,.7-.294,1.751,1.751,0,0,1,.874.275.247.247,0,0,1,.03.021s4.295,4.388,4.7,5.4A2.594,2.594,0,0,1,219.09,446.565Z" transform="translate(-194.676 -387.257)" opacity="0.1"/>
  <path id="Path_164" data-name="Path 164" d="M218.061,446.072a12.957,12.957,0,0,1-.576,2.483,25.214,25.214,0,0,1-.755,4.342c-.425.991-.235,2.359-.472,4.884a3.2,3.2,0,0,1-.773,1.955,2.9,2.9,0,0,1-2.308.8l-.173-.014c-1.18-.118-2.312-5.8-2.312-5.8a39.978,39.978,0,0,1-.33-5.5,27.186,27.186,0,0,0-.354-5.262,4.57,4.57,0,0,1,.389-1.934c.122-.322.223-.543.223-.543a5.7,5.7,0,0,1,1.062-1.934.963.963,0,0,1,.7-.293,1.722,1.722,0,0,1,.874.275l.03.019s4.295,4.388,4.7,5.4A2.54,2.54,0,0,1,218.061,446.072Z" transform="translate(-193.788 -386.834)" fill="#ff748e"/>
  <path id="Path_165" data-name="Path 165" d="M225.206,614.38s-.974.867-1.31.825S225.206,614.38,225.206,614.38Z" transform="translate(-205.744 -537.872)" opacity="0.1"/>
  <path id="Path_166" data-name="Path 166" d="M226.921,620.345a13.944,13.944,0,0,1-1.333.55C225.281,620.969,226.525,620.222,226.921,620.345Z" transform="translate(-207.2 -543.005)" opacity="0.1"/>
  <path id="Path_167" data-name="Path 167" d="M264.44,525.621s1.521.018,1.751.5S264.93,525.425,264.44,525.621Z" transform="translate(-240.748 -461.304)" opacity="0.1"/>
  <path id="Path_168" data-name="Path 168" d="M262.89,531.8a5.533,5.533,0,0,1,1.521.531C264.765,532.614,262.89,531.8,262.89,531.8Z" transform="translate(-239.412 -466.653)" opacity="0.1"/>
  <path id="Path_169" data-name="Path 169" d="M243.622,510.84s-.138,4.794-.663,5.415S243.622,510.84,243.622,510.84Z" transform="translate(-222.107 -448.576)" opacity="0.1"/>
  <path id="Path_170" data-name="Path 170" d="M237.573,607.325s-.977,4.229.982,4.49S239.909,607,239.909,607Z" transform="translate(-217.368 -531.508)" opacity="0.1"/>
  <path id="Path_171" data-name="Path 171" d="M237.067,606.832s-.971,4.229.984,4.493,1.352-4.815,1.352-4.815Z" transform="translate(-216.933 -531.085)" fill="#ecb4b6"/>
  <path id="Path_172" data-name="Path 172" d="M222.908,385.77a1.433,1.433,0,0,1-.138-.257c-.26-.542-.929-.275-1.418-.018l-.261.337a2.1,2.1,0,0,0-.3.461,3.485,3.485,0,0,0-.125.413c-.067.239-.166.468-.256.7a8.156,8.156,0,0,0-.521,2.427,3.76,3.76,0,0,1-.674.061H219.2v-.017c.025-.094.045-.188.065-.283h0a4.909,4.909,0,0,0,.037-1.623v-.036c-.018-.12-.041-.241-.051-.36-.045.083-.089.166-.138.252a2.7,2.7,0,0,1-1.165,1.341,2.39,2.39,0,0,1-.708.16,4.041,4.041,0,0,0-.886.147.55.55,0,0,0-.257.155.759.759,0,0,0-.129.388,3.129,3.129,0,0,1-.138.538,4.716,4.716,0,0,1-1.156,1.722l-.128.124a2.4,2.4,0,0,1-.765.53,2.338,2.338,0,0,1-.81.121c.122-.322.223-.543.223-.543a5.7,5.7,0,0,1,1.062-1.934.963.963,0,0,1,.7-.293,10.391,10.391,0,0,0,1.274-1.894,3.714,3.714,0,1,1,6.682-2.614Z" transform="translate(-196.359 -337.866)" opacity="0.1"/>
  <path id="Path_173" data-name="Path 173" d="M213.08,367.029a2.534,2.534,0,0,0-.825-.53.629.629,0,0,1-.268-.2.817.817,0,0,1-.083-.337,2.191,2.191,0,0,0-1.436-1.506,3.131,3.131,0,0,0-2.7-.091,8.773,8.773,0,0,0-1.074.834c-.457.349-.982.594-1.469.9a2.886,2.886,0,0,0-1.183,1.219,5.774,5.774,0,0,0-.044,2.629,4.323,4.323,0,0,1-1.626,3.684,1.42,1.42,0,0,0-.358.312.392.392,0,0,0-.029.444c.056.077.15.121.212.193a.611.611,0,0,1,.052.561,3.511,3.511,0,0,1-.944,1.614c.019.146.2.2.34.224a7.717,7.717,0,0,0,1.154.084,1.94,1.94,0,0,0,1.614-.651,4.382,4.382,0,0,0,1.425-2.384.785.785,0,0,1,.129-.388.582.582,0,0,1,.257-.155c.513-.176,1.1-.089,1.594-.307a3.134,3.134,0,0,0,1.3-1.593c.011.12.033.241.052.362a4.892,4.892,0,0,1-.1,1.942,4.032,4.032,0,0,0-.216,1.087c.007.275.286,1.713.653,1.282s.232-1.383.232-1.916a8.192,8.192,0,0,1,.541-2.923c.088-.233.188-.462.256-.7a3.757,3.757,0,0,1,.124-.413,2.156,2.156,0,0,1,.3-.461l.263-.337c.49-.26,1.158-.524,1.418.018.1.208.153.438.413.235a.924.924,0,0,0,.242-.534A2.481,2.481,0,0,0,213.08,367.029Z" transform="translate(-186.294 -322.022)" fill="#464353"/>
  <path id="Path_174" data-name="Path 174" d="M220.268,465.931a2.309,2.309,0,0,0-4.486-.663.351.351,0,0,0-.016.05c-.543,1.627-.307,5.749-.307,5.749a24.936,24.936,0,0,0,.33,3.688c.26.92.99,3.562.99,3.989a4.932,4.932,0,0,0,.963,2.171c.285.118.429,1.037.5,1.2s.275,2.313.275,2.313,2.666-.165,2.713-.59a15.19,15.19,0,0,0-.59-2.5,4.813,4.813,0,0,1-.53-1.533c-.061-.684-.429-.995-.356-1.466s-.213-.707-.213-1.014a7.546,7.546,0,0,0-.212-1.132s-.448-.355-.377-.779-.637-1.274-.448-1.581a3.192,3.192,0,0,0,.235-1.062s.237-3.4.4-4.317a9.142,9.142,0,0,1,1.132-2.406S220.271,466.007,220.268,465.931Z" transform="translate(-198.461 -407.938)" opacity="0.1"/>
  <path id="Path_175" data-name="Path 175" d="M218.39,480.386a2.9,2.9,0,0,1-2.308.8c-.085-.322-.209-.718-.389-.792a4.932,4.932,0,0,1-.963-2.169c0-.424-.73-3.068-.99-3.989a24.935,24.935,0,0,1-.33-3.687s-.237-4.127.307-5.75a.143.143,0,0,1,.016-.048,2.309,2.309,0,0,1,4.486.663v.117a9.28,9.28,0,0,0-1.132,2.406c-.169.92-.4,4.317-.4,4.317a3.2,3.2,0,0,1-.237,1.062c-.188.307.519,1.157.448,1.581a.969.969,0,0,0,.377.779,7.537,7.537,0,0,1,.212,1.134c0,.308.283.542.213,1.014s.307.779.367,1.462A3.813,3.813,0,0,0,218.39,480.386Z" transform="translate(-196.693 -407.485)" opacity="0.1"/>
  <path id="Path_176" data-name="Path 176" d="M219.238,465.421a2.309,2.309,0,0,0-4.486-.663l-.017.048c-.543,1.629-.307,5.75-.307,5.75a24.92,24.92,0,0,0,.33,3.687c.26.92.99,3.563.99,3.989a4.938,4.938,0,0,0,.963,2.171c.285.118.429,1.039.5,1.2s.275,2.311.275,2.311,2.666-.165,2.713-.589a15.245,15.245,0,0,0-.589-2.5,4.814,4.814,0,0,1-.531-1.534c-.061-.684-.437-.99-.366-1.462s-.213-.708-.213-1.015a7.548,7.548,0,0,0-.212-1.132.962.962,0,0,1-.377-.779c.072-.425-.637-1.274-.448-1.581a3.186,3.186,0,0,0,.235-1.061s.237-3.4.4-4.318a9.141,9.141,0,0,1,1.132-2.406A.6.6,0,0,0,219.238,465.421Z" transform="translate(-197.573 -407.498)" fill="#ff748e"/>
  <path id="Path_177" data-name="Path 177" d="M217.88,519.639c.07-.072,1.416-1.557,1.839-1.026S217.88,519.639,217.88,519.639Z" transform="translate(-200.593 -455.181)" opacity="0.1"/>
  <path id="Path_178" data-name="Path 178" d="M218.78,528.778c.052-.054,1.344-.106,1.663-.825S218.78,528.778,218.78,528.778Z" transform="translate(-201.37 -463.17)" opacity="0.1"/>
  <g id="Group_13" data-name="Group 13" transform="translate(15.046 45.939)" opacity="0.1">
    <path id="Path_179" data-name="Path 179" d="M206.386,436.765a.364.364,0,0,1,.07.128.55.55,0,0,0-.07-.481c-.063-.073-.155-.116-.213-.193l-.011-.019a.365.365,0,0,0,.011.373C206.238,436.65,206.323,436.694,206.386,436.765Z" transform="translate(-205.493 -430.143)"/>
    <path id="Path_180" data-name="Path 180" d="M220.282,395.34v-.4c-.025-.481-.114-.975-.138-1.458a17.628,17.628,0,0,0,.138,1.812C220.282,395.305,220.28,395.321,220.282,395.34Z" transform="translate(-217.588 -393.3)"/>
    <path id="Path_181" data-name="Path 181" d="M257.153,442.687c-.327.384-.585-.721-.641-1.157a1.807,1.807,0,0,0-.012.228c.008.275.286,1.713.653,1.282a1.886,1.886,0,0,0,.259-1.246A1.483,1.483,0,0,1,257.153,442.687Z" transform="translate(-248.946 -434.74)"/>
    <path id="Path_182" data-name="Path 182" d="M209.456,416.677a4.731,4.731,0,0,1,.051.558,4.833,4.833,0,0,0-.051-.913c-.018-.12-.041-.241-.052-.362a3.143,3.143,0,0,1-1.3,1.594c-.5.216-1.081.131-1.594.307a.55.55,0,0,0-.257.155.768.768,0,0,0-.129.388,4.4,4.4,0,0,1-1.427,2.384,1.94,1.94,0,0,1-1.614.651,7.887,7.887,0,0,1-1.153-.084.868.868,0,0,1-.173-.045c-.054.061-.11.118-.168.175.019.146.2.2.341.224a7.7,7.7,0,0,0,1.153.084,1.94,1.94,0,0,0,1.614-.651,4.392,4.392,0,0,0,1.427-2.384.772.772,0,0,1,.129-.388.567.567,0,0,1,.257-.155c.513-.176,1.1-.089,1.594-.307a3.125,3.125,0,0,0,1.3-1.593C209.415,416.435,209.438,416.556,209.456,416.677Z" transform="translate(-201.59 -412.687)"/>
    <path id="Path_183" data-name="Path 183" d="M266.5,393.085a.93.93,0,0,1-.243.534c-.259.2-.311-.028-.413-.235-.26-.542-.929-.275-1.418-.018l-.263.337a2.1,2.1,0,0,0-.3.461,3.241,3.241,0,0,0-.124.413c-.069.239-.168.468-.257.7a8.235,8.235,0,0,0-.539,2.923v.146a8.212,8.212,0,0,1,.538-2.714c.089-.232.188-.462.257-.7a3.241,3.241,0,0,1,.124-.413,2.1,2.1,0,0,1,.3-.461l.263-.337c.49-.26,1.158-.524,1.418.018.1.208.153.437.413.235a.926.926,0,0,0,.243-.534,4.665,4.665,0,0,0,.138-1.268A6.07,6.07,0,0,1,266.5,393.085Z" transform="translate(-254.5 -392.17)"/>
  </g>
  <path id="Path_184" data-name="Path 184" d="M311.821,463.321l.073.05a.292.292,0,0,1-.076-.413l3.28-4.752a.29.29,0,0,1,.406-.074l-.073-.051a.469.469,0,0,1,.12.652l-3.077,4.467A.47.47,0,0,1,311.821,463.321Z" transform="translate(-281.562 -403.074)" fill="#464353"/>
  <path id="Path_185" data-name="Path 185" d="M.239,0H.307V6.364H.239A.239.239,0,0,1,0,6.124V.241A.239.239,0,0,1,.239,0Z" transform="translate(33.707 54.889) rotate(34.56)" fill="#9f9eff"/>
  <rect id="Rectangle_15" data-name="Rectangle 15" width="0.059" height="0.519" rx="0.03" transform="translate(33.469 55.721) rotate(34.56)" fill="#464353"/>
  <path id="Path_186" data-name="Path 186" d="M811.832,325.37a2.376,2.376,0,1,1-2.376-2.37,2.376,2.376,0,0,1,2.376,2.37Zm-2.651,1.257,1.764-1.762a.154.154,0,0,0,0-.216l-.217-.217a.151.151,0,0,0-.216,0l-1.438,1.438-.671-.669a.155.155,0,0,0-.217,0l-.216.217a.151.151,0,0,0,0,.216l1,1a.151.151,0,0,0,.216,0Z" transform="translate(-708.739 -286.577)" fill="#3acc6c"/>
  <path id="Path_187" data-name="Path 187" d="M602.621,514.876a2.376,2.376,0,1,1-2.376-2.376A2.376,2.376,0,0,1,602.621,514.876Zm-2.651,1.257,1.769-1.762a.153.153,0,0,0,0-.217l-.223-.209a.153.153,0,0,0-.217,0l-1.438,1.431-.671-.671a.151.151,0,0,0-.216,0l-.217.216a.155.155,0,0,0,0,.217l1,1a.153.153,0,0,0,.217,0Z" transform="translate(-528.31 -450.008)" fill="#3acc6c"/>
  <path id="Path_188" data-name="Path 188" d="M602.621,703.536a2.376,2.376,0,1,1-2.376-2.376A2.376,2.376,0,0,1,602.621,703.536Zm-2.651,1.257,1.769-1.762a.153.153,0,0,0,0-.217l-.216-.216a.153.153,0,0,0-.217,0l-1.438,1.438-.671-.671a.151.151,0,0,0-.216,0l-.217.216a.156.156,0,0,0,0,.217l1,1a.153.153,0,0,0,.217,0Z" transform="translate(-528.31 -612.715)" fill="#3acc6c"/>
</svg>
